<svg xmlns="http://www.w3.org/2000/svg" viewBox="0 0 976.7 1009.79"><defs><style>.cls-1{fill:#72cac6;stroke:#72cac6;stroke-miterlimit:10;}.cls-2{fill:#fff;}</style></defs><g id="Layer_2" data-name="Layer 2"><ellipse class="cls-1" cx="488.35" cy="504.89" rx="487.85" ry="504.39"/></g><g id="Layer_3" data-name="Layer 3"><path class="cls-2" d="M801.22,650.22q0,91.83-61.47,152.22t-155.84,60.4q-36.43,0-62.71-5.1t-44.5-12.45q-19.05-7.75-30.43-15.3t-18-12.45l-59.19,53.05-24.43-9.38q2.07-29.79,3.52-64.69t1.45-94.06v-382a65.2,65.2,0,0,0-6.42-28.77q-6.42-13.24-17.17-20.2-7.87-4.89-23-8.57a163.22,163.22,0,0,0-27.94-4.49V228.66L480,218.05l6.22,6.53V489.84h2.48q30.17-29,62-42.44t63.67-13.47q86.8,0,136.83,58.36T801.22,650.22Zm-148.6,4.9a366.34,366.34,0,0,0-4.75-59.79q-4.75-28.77-15.89-50.8t-29.32-35.3Q584.48,496,557.65,496q-25.18,0-41.71,8.17T486.22,528.2V765.71q2.47,8.17,9.29,21.43t13.83,20.61a73.48,73.48,0,0,0,21.06,16.11q11.15,5.52,31.38,5.51,42.12,0,66.48-45.5T652.62,655.12Z" transform="translate(-23.65 -24.47)"/></g></svg>